<svg width="512" height="512" viewBox="0 0 512 512" fill="none" xmlns="http://www.w3.org/2000/svg">
<path d="M144 414.49L144 108.51C144 89.4812 111.711 74 71.9756 74C32.2888 74 3.17482e-05 89.4812 3.09165e-05 108.51L1.75416e-05 414.49C1.67099e-05 433.519 32.2887 449 71.9756 449C111.711 449 144 433.519 144 414.49Z" fill="white"/>
<path d="M328 409.951L328 108.049C328 89.2748 295.711 74 255.976 74C216.289 74 184 89.2748 184 108.049L184 409.951C184 428.725 216.289 444 255.976 444C295.711 444 328 428.725 328 409.951Z" fill="white"/>
<path d="M512 409.951L512 108.049C512 89.2748 479.711 74 439.976 74C400.289 74 368 89.2748 368 108.049L368 409.951C368 428.725 400.289 444 439.976 444C479.711 444 512 428.725 512 409.951Z" fill="white"/>
</svg>
